<svg xmlns="http://www.w3.org/2000/svg" viewBox="0 0 55.09 55.09"><defs><style>.a{fill:#b90808;}</style></defs><g transform="translate(-691 -223)"><path class="a" d="M27.544,55.09A27.546,27.546,0,0,1,8.067,8.067,27.546,27.546,0,0,1,47.022,47.022,27.366,27.366,0,0,1,27.544,55.09Zm0-51.216a23.678,23.678,0,0,0-9.21,45.486A23.674,23.674,0,0,0,44.281,10.8,23.569,23.569,0,0,0,27.544,3.873Z" transform="translate(691 223)"/><path class="a" d="M2.152,24.155A2.151,2.151,0,0,1,0,22V2.152a2.152,2.152,0,0,1,4.3,0V22A2.151,2.151,0,0,1,2.152,24.155Z" transform="translate(716.393 233.275)"/><path class="a" d="M0,2.421A2.421,2.421,0,1,0,2.421,0,2.421,2.421,0,0,0,0,2.421Z" transform="translate(716.124 260.874)"/></g></svg>